<svg width="3001" height="1744" viewBox="0 0 3001 1744" fill="none" xmlns="http://www.w3.org/2000/svg">
<g clip-path="url(#clip0_17_136)">
<path d="M2959.14 1506.37C2959.14 1507.3 2959.14 1508.22 2959.14 1509.15C2959.14 1511.15 2959.05 1513.05 2958.98 1515C2958.25 1539.08 2953.95 1562.91 2946.22 1585.73C2945.87 1586.73 2945.52 1587.73 2945.15 1588.73C2930.39 1629.93 2902.82 1670.15 2857.15 1710.03C2847.92 1718.1 2837.92 1726.15 2827.15 1734.18C2824.64 1736.06 2822.07 1737.93 2819.47 1739.82H2742.03L1155.36 1739.32H1041.21L143 1739C143 1739 142.37 1737.37 141.2 1734.22C134.5 1716.15 110.2 1648.16 86.9801 1553.45C63.0801 1455.81 41.71 1300.51 41.05 1138.08C41.05 1132.46 41.05 1126.83 41.05 1121.18C42 928.76 72.75 728.84 163.15 604.76C164.21 603.3 165.283 601.85 166.37 600.41C167.94 598.33 169.51 596.25 171.08 594.19C171.78 593.26 172.49 592.36 173.21 591.45C422.9 268.52 821.75 269 1014.79 289.55C1033.71 291.55 1050.64 293.76 1065.25 295.87C1074.05 297.13 1082.02 298.36 1089.07 299.5C1364.91 343.98 1489.41 205.31 1489.41 205.31C1683.86 26.18 1867.77 -17.56 2122.25 5.76998C2154.18 8.66998 2185.91 13.03 2217.25 18.77C2341.12 41.34 2458.94 85.3 2560.07 147.88C2571.04 154.653 2581.79 161.653 2592.33 168.88C2596.13 171.467 2599.9 174.093 2603.65 176.76C2617.06 186.26 2630.1 196.11 2642.78 206.31C2714.69 264.19 2774.19 333.31 2815.97 412.21C2849.23 474.773 2870.53 542.989 2878.78 613.36C2880.52 628.027 2881.71 642.887 2882.34 657.94C2883.17 677.68 2883.02 697.783 2881.91 718.25C2879.43 761.124 2872.96 803.674 2862.6 845.35V845.35C2861.76 848.77 2860.96 852.177 2860.2 855.57C2848.02 909.523 2843.81 964.966 2847.68 1020.14C2860.53 1211.37 2960 1366.25 2959.14 1506.37Z" fill="#EBF3FA"/>
<path d="M2594.07 738.52H2530.44V597.73L2527.44 596.05H2508.44V596H2398.15V596.07H2398.05V617.18H2398.15V631.69H2398.05V652.79H2398.15V667.35H2398.05V688.46H2398.15V688.54L2386.45 688.46V578H2262.6V592H2262.54V613.09H2262.6V631.64H2262.54V652.74H2262.6V667.3H2262.54V688.41H2262.6V701.89H2262.54V723H2262.6V736.5H2262.54V757.6H2262.6V770.29H2262.54V783.7H2262.6V785.16H2123V905.94H2070.85V936.36H2014.61V884H1913.45V741.61H1897.63V727.43H1895.37V741.61H1882.25H1816.64V727.43H1814.37V741.59H1797.28V813.18L1712.28 812.78V857H1640.28V583.84H1426.82V876.44H1361.64V718.22H1148.2V1741.85L2606.7 1736.33L2594.07 738.52Z" fill="#DFEBFA"/>
<path d="M1148.4 904.61V1000.55V1143.27V1734.86H1041.2V1143.27V1000.55V904.61H1148.4Z" fill="#DFEBFA"/>
<path d="M2152.92 728.82H2148.99V786.19H2152.92V728.82Z" fill="#DFEBFA"/>
<path d="M2221.38 679.56H2215.26V790.65H2221.38V679.56Z" fill="#DFEBFA"/>
<path d="M1443.54 563.38H1440.99V583.84H1443.54V563.38Z" fill="#DFEBFA"/>
<path d="M1497.57 563.38H1495.02V583.84H1497.57V563.38Z" fill="#DFEBFA"/>
<path d="M1621.44 563.38H1618.89V583.84H1621.44V563.38Z" fill="#DFEBFA"/>
<path d="M2276.87 562.25H2274.9V578.04H2276.87V562.25Z" fill="#DFEBFA"/>
<path d="M2369.85 562.25H2367.88V578.04H2369.85V562.25Z" fill="#DFEBFA"/>
<path d="M1573.01 563.38H1570.46V583.84H1573.01V563.38Z" fill="#DFEBFA"/>
<path d="M1204.38 764.89H1179.24V807.49H1204.38V764.89Z" fill="#EEF6FF"/>
<path d="M1888.58 775.26H1863.44V817.86H1888.58V775.26Z" fill="#EEF6FF"/>
<path d="M1486.76 618.04H1461.62V660.64H1486.76V618.04Z" fill="#EEF6FF"/>
<path d="M1536.66 618.04H1511.52V660.64H1536.66V618.04Z" fill="#EEF6FF"/>
<path d="M2493.99 948.04H2468.85V990.64H2493.99V948.04Z" fill="#EEF6FF"/>
<path d="M1216.95 971.03H1191.81V1013.63H1216.95V971.03Z" fill="#EEF6FF"/>
<path d="M2847.66 1020.13C2843.78 964.957 2847.99 909.512 2860.17 855.56C2860.94 852.17 2861.73 848.76 2862.57 845.34C2872.93 803.663 2879.39 761.113 2881.88 718.24H2742V1739.83H2819.44C2822.04 1737.94 2824.61 1736.07 2827.12 1734.19C2837.87 1726.15 2847.87 1718.1 2857.12 1710.04C2902.79 1670.16 2930.36 1629.94 2945.12 1588.74C2945.48 1587.74 2945.84 1586.74 2946.19 1585.74C2953.94 1562.92 2958.26 1539.08 2959 1515C2959.07 1513 2959.12 1511.12 2959.15 1509.15C2959.15 1508.22 2959.15 1507.3 2959.15 1506.37C2960 1366.25 2860.52 1211.37 2847.66 1020.13Z" fill="#DFEBFA"/>
<path d="M2742.21 904.61V1000.55V1143.27V1734.86H2643.02V1143.27V1000.55V904.61H2742.21Z" fill="#DFEBFA"/>
<path d="M2794.01 764.89H2770.75V807.49H2794.01V764.89Z" fill="#EEF6FF"/>
<path d="M2862.58 845.32C2861.74 848.74 2860.95 852.15 2860.18 855.54V845.32H2862.58Z" fill="#EEF6FF"/>
<path d="M2805.64 971.03H2782.38V1013.63H2805.64V971.03Z" fill="#EEF6FF"/>
<path d="M1030.79 759.44H977.32V618.67C976.51 618.1 975.68 617.55 974.87 616.98H958.94V616.92H866.23V617H866.14V638.1H866.23V652.61H866.14V673.71H866.23V688.27H866.14V709.37H866.23V709.44L856.41 709.37V599H752.41V613H752.35V634.11H752.41V652.66H752.35V673.76H752.41V688.32H752.35V709.42H752.41V722.89H752.35V744H752.41V757.47H752.35V778.57H752.41V791.27H752.35V804.67H752.41V806.14H635.14V926.88H591.34V957.29H544.12V904.9H459.12V762.54H445.86V748.36H444V762.54H377.83V748.36H375.93V762.53H361.58V834.11L290.21 833.73V877.89H229.7V604.76H163.15C72.75 728.84 42.04 928.76 41.15 1121.18C41.15 1126.82 41.15 1132.45 41.15 1138.08C41.81 1300.51 63.15 1455.81 87.08 1553.45C110.26 1648.16 134.6 1716.15 141.3 1734.22C142.47 1737.37 143.1 1739 143.1 1739L1041.26 1739.33L1030.79 759.44Z" fill="#DFEBFA"/>
<path d="M660.27 749.75H656.97V807.12H660.27V749.75Z" fill="#DFEBFA"/>
<path d="M717.76 700.49H712.62V811.58H717.76V700.49Z" fill="#DFEBFA"/>
<path d="M213.88 584.31H211.74V604.77H213.88V584.31Z" fill="#DFEBFA"/>
<path d="M764.36 583.19H762.71V598.98H764.36V583.19Z" fill="#DFEBFA"/>
<path d="M842.45 583.19H840.8V598.98H842.45V583.19Z" fill="#DFEBFA"/>
<path d="M173.21 591.45V604.78H171.08V594.19C171.78 593.26 172.49 592.36 173.21 591.45Z" fill="#DFEBFA"/>
<path d="M192.18 630.56H171.07V673.16H192.18V630.56Z" fill="#EEF6FF"/>
<path d="M259.58 976.68H238.47V1019.28H259.58V976.68Z" fill="#EEF6FF"/>
<path d="M377.21 1101.39H356.1V1143.99H377.21V1101.39Z" fill="#EEF6FF"/>
<path d="M120.41 895.1H99.3V937.7H120.41V895.1Z" fill="#EEF6FF"/>
<path d="M794.52 619.91H773.41V662.51H794.52V619.91Z" fill="#EEF6FF"/>
<path d="M709.58 976.68H688.47V1019.28H709.58V976.68Z" fill="#EEF6FF"/>
<path d="M881.93 1058.79H860.82V1101.39H881.93V1058.79Z" fill="#EEF6FF"/>
<path d="M1065.25 295.87V1737.87H1014.79V289.55C1033.7 291.56 1050.63 293.76 1065.25 295.87Z" fill="#D1E3FB"/>
<path d="M2642.76 206.26V1737.88H2592.31V168.83C2596.11 171.417 2599.88 174.043 2603.63 176.71C2617.04 186.237 2630.09 196.087 2642.76 206.26Z" fill="#D1E3FB"/>
<path d="M1374.17 1713.31H1342.86L1334.08 1314.96H1381.9L1374.17 1713.31Z" fill="#2B478B"/>
<path d="M1510.21 1713.31H1205.77V1685.81L1360.94 1671.82L1510.21 1685.81V1713.31Z" fill="#2B478B"/>
<path d="M1176.19 1709C1176.19 1704.06 1177.66 1699.22 1180.4 1695.11C1183.15 1691 1187.05 1687.8 1191.62 1685.9C1196.19 1684.01 1201.22 1683.52 1206.07 1684.48C1210.92 1685.45 1215.37 1687.83 1218.87 1691.32C1222.36 1694.82 1224.74 1699.27 1225.71 1704.12C1226.67 1708.97 1226.18 1714 1224.29 1718.57C1222.39 1723.14 1219.19 1727.04 1215.08 1729.79C1210.97 1732.53 1206.13 1734 1201.19 1734C1194.56 1734 1188.2 1731.37 1183.51 1726.68C1178.82 1721.99 1176.19 1715.63 1176.19 1709Z" fill="#2B478B"/>
<path d="M1480.64 1709C1480.64 1704.06 1482.11 1699.22 1484.85 1695.11C1487.6 1691 1491.5 1687.8 1496.07 1685.9C1500.64 1684.01 1505.67 1683.52 1510.52 1684.48C1515.37 1685.45 1519.82 1687.83 1523.32 1691.32C1526.81 1694.82 1529.2 1699.27 1530.16 1704.12C1531.12 1708.97 1530.63 1714 1528.74 1718.57C1526.84 1723.14 1523.64 1727.04 1519.53 1729.79C1515.42 1732.53 1510.58 1734 1505.64 1734C1499.01 1734 1492.65 1731.37 1487.96 1726.68C1483.27 1721.99 1480.64 1715.63 1480.64 1709Z" fill="#2B478B"/>
<path d="M1499.3 1341.1H1216.68C1213.25 1341.1 1209.85 1340.42 1206.68 1339.11C1203.51 1337.8 1200.63 1335.87 1198.2 1333.45C1195.78 1331.02 1193.85 1328.14 1192.54 1324.97C1191.23 1321.8 1190.55 1318.4 1190.55 1314.97H1525.44C1525.44 1318.4 1524.76 1321.8 1523.45 1324.97C1522.14 1328.14 1520.21 1331.02 1517.78 1333.45C1515.36 1335.88 1512.47 1337.8 1509.3 1339.11C1506.13 1340.43 1502.73 1341.1 1499.3 1341.1V1341.1Z" fill="#2B478B"/>
<path d="M1146.45 1315C1134.92 1315 1123.87 1310.42 1115.72 1302.27C1107.57 1294.12 1102.99 1283.07 1102.99 1271.54V924.33C1102.99 855.59 1147.93 799.87 1203.37 799.87H1430.37C1485.8 799.87 1530.74 855.59 1530.74 924.33V1315H1146.45Z" fill="#9FC1F4"/>
<path d="M1150.94 1315C1144.62 1315 1138.56 1312.49 1134.09 1308.02C1129.62 1303.55 1127.11 1297.49 1127.11 1291.17V924.33C1127.11 855.59 1172.05 799.87 1227.48 799.87H1454.48C1509.92 799.87 1554.86 855.59 1554.86 924.33V1315H1150.94Z" fill="#4A8DFD"/>
<path d="M1677 1315H1129.58C1122.28 1315 1115.27 1312.1 1110.11 1306.93C1104.94 1301.77 1102.04 1294.76 1102.04 1287.46C1102.04 1280.16 1104.94 1273.15 1110.11 1267.99C1115.27 1262.82 1122.28 1259.92 1129.58 1259.92H1677C1684.3 1259.92 1691.31 1262.82 1696.47 1267.99C1701.64 1273.15 1704.54 1280.16 1704.54 1287.46V1287.46C1704.54 1294.76 1701.64 1301.77 1696.47 1306.93C1691.31 1312.1 1684.3 1315 1677 1315V1315Z" fill="#9FC1F4"/>
<path d="M1679 209.94C1679 209.94 1702.65 170.18 1759.21 174.6C1759.21 174.6 1841.31 108.33 1928.87 165.76C1928.87 165.76 2021.94 151.53 2090.87 178.08C2136.87 195.78 2152.01 214.35 2152.01 214.35L1679 209.94Z" fill="#F8FCFF"/>
<path d="M2030.81 319C2030.81 319 2044.55 294.76 2077.4 297.45C2077.4 297.45 2125.09 257.04 2175.94 292.06C2175.94 292.06 2230 283.39 2270.03 299.58C2296.72 310.37 2305.54 321.69 2305.54 321.69L2030.81 319Z" fill="#F8FCFF"/>
<path d="M1154.17 494.72C1154.17 494.72 1172.73 461.98 1217.1 465.61C1217.1 465.61 1281.52 411.03 1350.21 458.34C1350.21 458.34 1423.21 446.62 1477.3 468.48C1513.36 483.06 1525.3 498.36 1525.3 498.36L1154.17 494.72Z" fill="#F8FCFF"/>
<path d="M2267.77 1734.39C2267.77 1734.39 2267.77 1712.93 2270.83 1705.79C2273.89 1698.65 2285.1 1669.59 2285.1 1669.59H2328.94C2328.94 1669.59 2337.1 1696.1 2337.61 1704.77C2338.12 1713.44 2337.61 1734.39 2337.61 1734.39H2267.77Z" fill="#233862"/>
<path d="M2546.13 1734.39C2546.13 1734.39 2546.13 1712.93 2543.07 1705.79C2540.01 1698.65 2528.8 1669.59 2528.8 1669.59H2485C2485 1669.59 2476.84 1696.1 2476.33 1704.77C2475.82 1713.44 2476.33 1734.39 2476.33 1734.39H2546.13Z" fill="#233862"/>
<path d="M2370.49 529.71C2370.49 529.71 2368.95 577.5 2362.83 598.92L2314.41 632.69L2496.66 660L2453.2 599.95C2453.2 599.95 2440.08 535.87 2446.96 512.16C2453.84 488.45 2370.49 529.71 2370.49 529.71Z" fill="#FFB27D"/>
<path d="M2370.23 536.31C2370.23 536.31 2384.64 571 2411.78 570.24C2438.92 569.48 2445.11 538.78 2445.11 538.78L2370.23 536.31Z" fill="#ED985F"/>
<path d="M2354 508.22C2354 508.22 2345.24 464.46 2339.12 451.22C2333 437.98 2327.9 378.83 2395.71 375.77C2395.71 375.77 2421.71 378.83 2435.98 370.16C2435.98 370.16 2435.98 378.83 2432.41 381.88C2440.06 380.535 2447.93 381.189 2455.25 383.781C2462.58 386.372 2469.11 390.812 2474.21 396.67C2492.57 417.06 2461.98 488.43 2463.51 505.25L2354 508.22Z" fill="#2C3A64"/>
<path d="M2408.67 556.83C2389 556.49 2352.8 530.3 2352.8 497.83V447.25C2352.8 435.41 2361.06 425.72 2371.15 425.72H2446.15C2456.25 425.72 2464.51 435.41 2464.51 447.25V495C2464.55 529 2431.23 557.23 2408.67 556.83Z" fill="#FFB27D"/>
<path d="M2352.8 474.27C2352.8 474.27 2352.9 443.86 2376.99 439.19C2401.08 434.52 2454.99 454.01 2462.64 431.83C2470.29 409.65 2358.43 410 2352.8 424.19C2347.17 438.38 2352.8 474.27 2352.8 474.27Z" fill="#2C3A64"/>
<path d="M2273.26 991.09C2273.26 991.09 2280.94 1225.32 2269.47 1358.97C2258 1492.62 2269.55 1678.6 2269.55 1678.6C2269.55 1678.6 2306.23 1698.83 2345.99 1678.6C2345.99 1678.6 2389.6 1420.41 2389.33 1358.97C2389.03 1293.53 2436.79 1001.3 2436.79 1001.3L2273.26 991.09Z" fill="#C72B46"/>
<path d="M2544.55 1678.6C2544.55 1678.6 2507.87 1698.83 2468.11 1678.6C2468.11 1678.6 2424.51 1420.41 2424.78 1358.96C2424.91 1331.33 2416.46 1263.22 2406.66 1193.79C2393.25 1098.79 2377.31 1001.31 2377.31 1001.31L2547.18 990.69C2547.18 990.69 2533.18 1225.33 2544.64 1358.96C2556.1 1492.59 2544.55 1678.6 2544.55 1678.6Z" fill="#A3001C"/>
<path d="M2545.14 1030.06C2545.14 1030.06 2472.73 1044.06 2406.66 1044.06C2377.85 1044.06 2346.54 1040.9 2321.66 1037.56C2294.1 1033.91 2274.34 1030.04 2274.34 1030.04C2274.34 1030.04 2259.66 1031.32 2268.34 958.94C2274.94 903.85 2272.87 854.12 2271.4 802.94C2271.24 797.25 2271.4 790.52 2271.71 783.03C2274.52 723.37 2292.57 615.96 2306.32 610.2C2306.32 610.2 2326.77 602.6 2362.89 598.9C2362.89 599.6 2383.89 630.25 2408.74 633.69C2424.2 627.57 2436.34 622.36 2453.26 599.89C2476.81 602.667 2500.12 607.173 2523 613.37C2523 613.37 2525.6 624.75 2535.42 822.16C2539.3 900.35 2566 1030.32 2545.14 1030.06Z" fill="#304874"/>
<path d="M2424.78 1359C2424.91 1331.37 2416.46 1263.26 2406.66 1193.83C2416.83 1152.35 2441.66 1112.44 2441.66 1112.44C2473 1200.34 2424.78 1359 2424.78 1359Z" fill="#AC243E"/>
<path d="M2204.42 845.2C2202.69 846.64 2208.72 861.57 2217.59 881.02C2235.85 921.02 2266.17 980.02 2266.17 980.02C2263.84 989.255 2260.76 998.285 2256.97 1007.02C2205.97 966.93 2173.05 932.83 2152.05 906.68C2122.54 869.9 2116.48 848.81 2116.48 848.81C2230.08 617.5 2310 609 2310 609L2300.55 761.82C2300.55 761.82 2209.68 840.83 2204.42 845.2Z" fill="#304874"/>
<path d="M2260.12 982.91C2260.12 982.91 2287.65 957.42 2298.87 971.7C2310.09 985.98 2312.12 1008.4 2303.45 1006.87C2294.78 1005.34 2276.95 997.19 2274.45 1001.26C2271.95 1005.33 2260.45 1013.14 2257.01 1006.95C2253.57 1000.76 2260.12 982.91 2260.12 982.91Z" fill="#FFB27D"/>
<path d="M2266.17 980C2263.84 989.235 2260.76 998.265 2256.97 1007C2205.97 966.91 2173.05 932.81 2152.05 906.66C2167.88 905.48 2190.99 899.82 2217.59 881.07C2235.85 921 2266.17 980 2266.17 980Z" fill="#FFB27D"/>
<path d="M2704.93 848.74C2704.93 848.74 2698.87 869.83 2669.36 906.61C2648.36 932.76 2615.46 966.86 2564.44 1006.95C2560.65 998.215 2557.57 989.185 2555.24 979.95C2555.24 979.95 2585.56 920.95 2603.83 880.95C2612.7 861.5 2618.72 846.57 2616.99 845.13C2612.91 841.74 2557.38 793.49 2532.6 771.97L2520.83 761.72L2515.15 611.17C2515.15 611.17 2591.33 617.5 2704.93 848.74Z" fill="#304874"/>
<path d="M2561.28 982.91C2561.28 982.91 2533.76 957.42 2522.54 971.7C2511.32 985.98 2509.28 1008.4 2517.95 1006.87C2526.62 1005.34 2544.46 997.19 2547.01 1001.26C2549.56 1005.33 2561.01 1013.14 2564.44 1006.95C2567.87 1000.76 2561.28 982.91 2561.28 982.91Z" fill="#FFB27D"/>
<path d="M2555.23 980C2557.56 989.236 2560.64 998.266 2564.44 1007C2615.44 966.91 2648.35 932.81 2669.35 906.66C2653.52 905.48 2630.42 899.82 2603.82 881.07C2585.56 921 2555.23 980 2555.23 980Z" fill="#FFB27D"/>
<path d="M2365.37 587.26C2362.83 588.472 2360.59 590.222 2358.8 592.39C2357.01 594.558 2355.71 597.09 2355 599.81C2355 599.81 2387.46 633.2 2408.7 633.71L2365.37 587.26Z" fill="#5D71AB"/>
<path d="M2408.68 633.71L2450.58 585.58C2450.58 585.58 2459.23 591.27 2459.1 600.64C2459.1 600.64 2426.69 635 2408.68 633.71Z" fill="#5D71AB"/>
<path d="M2401.12 630.17C2401.12 630.17 2369.12 906.22 2380.28 939.87C2385.31 954.751 2391.85 969.079 2399.79 982.63C2400.79 984.349 2402.22 985.776 2403.94 986.768C2405.66 987.761 2407.61 988.283 2409.6 988.283C2411.58 988.283 2413.53 987.761 2415.25 986.768C2416.97 985.776 2418.4 984.349 2419.4 982.63C2427.9 967.89 2438.99 946.55 2438.99 935.73C2438.99 918.19 2414.73 629.97 2414.73 629.97L2401.12 630.17Z" fill="#4A8DFD"/>
<path d="M2392.76 616.63C2392.76 616.63 2412.08 614.7 2423.85 615.89C2424.39 615.949 2424.9 616.14 2425.34 616.445C2425.79 616.75 2426.15 617.161 2426.4 617.64C2426.65 618.119 2426.77 618.652 2426.76 619.191C2426.75 619.73 2426.61 620.259 2426.35 620.73C2423.05 626.67 2416.35 636.96 2409.28 636.96C2399.4 637 2384 617.32 2392.76 616.63Z" fill="#5D71AB"/>
<path d="M2393 524.23C2393 524.23 2399.13 532.52 2409.83 532.23C2412.89 532.188 2415.9 531.446 2418.62 530.059C2421.35 528.672 2423.72 526.678 2425.56 524.23C2425.56 524.23 2407.51 521.27 2393 524.23Z" fill="white"/>
<path d="M2003.48 1073.53L1639.58 1074.14L1693.16 834.04L2057.07 833.43L2003.48 1073.53Z" fill="#416299"/>
<path d="M2014.99 1073.81L1651.09 1074.43L1704.66 834.02L2068.56 833.41L2014.99 1073.81Z" fill="#233862"/>
<path d="M1853.71 1133.67L1778.12 1134.37L1830.45 974.85L1906.05 974.15L1853.71 1133.67Z" fill="#112544"/>
<path d="M1896.53 1126.76H1731.44V1134.36H1896.53V1126.76Z" fill="#112544"/>
<path d="M1621.65 1133.58H1308.16L1298.39 1061.68H1611.88L1621.65 1133.58Z" fill="white"/>
<path d="M1269.52 1133.31L1298.39 1061.68L1308.16 1133.58L1269.52 1133.31Z" fill="#9FC1F4"/>
<path d="M953.8 1118.28H960.61V1000.97L890.91 823.13L1015.36 726.7L1011.18 721.31L882.71 820.87L953.8 1002.26V1118.28Z" fill="#233862"/>
<path d="M1029.42 739C1030.91 737.926 1031.92 736.307 1032.23 734.493C1032.54 732.68 1032.12 730.818 1031.07 729.31L1020.71 714.69C1019.64 713.185 1018.02 712.163 1016.2 711.846C1014.38 711.53 1012.51 711.944 1011 713V713C1009.51 714.074 1008.5 715.693 1008.19 717.507C1007.88 719.32 1008.3 721.182 1009.35 722.69L1019.71 737.31C1020.78 738.815 1022.4 739.837 1024.22 740.154C1026.04 740.47 1027.91 740.055 1029.42 739V739Z" fill="#233862"/>
<path d="M897.38 821.08C897.38 819.3 896.852 817.56 895.863 816.08C894.874 814.6 893.469 813.446 891.824 812.765C890.18 812.084 888.37 811.906 886.624 812.253C884.878 812.6 883.275 813.457 882.016 814.716C880.757 815.975 879.9 817.578 879.553 819.324C879.206 821.07 879.384 822.88 880.065 824.524C880.746 826.169 881.9 827.574 883.38 828.563C884.86 829.552 886.6 830.08 888.38 830.08C890.767 830.08 893.056 829.132 894.744 827.444C896.432 825.756 897.38 823.467 897.38 821.08V821.08Z" fill="#233862"/>
<path d="M992.68 1134.42H924.13V1128C924.13 1124.53 925.51 1121.19 927.967 1118.74C930.424 1116.28 933.756 1114.9 937.23 1114.9H980.09C983.429 1114.9 986.631 1116.23 988.992 1118.59C991.354 1120.95 992.68 1124.15 992.68 1127.49V1134.41V1134.42Z" fill="#233862"/>
<path d="M950.03 1118.29H964.43V1009.29H950.03V1118.29Z" fill="#233862"/>
<path d="M1014 840.16C1014.33 840.52 1014.65 840.88 1015 841.22L1015.07 841.3C1015.38 841.66 1015.7 841.99 1016.07 842.3C1025.38 850.38 1056.23 835.91 1086.07 809.21C1115.91 782.51 1133.73 753.47 1126.74 743.32C1126.45 742.96 1126.15 742.61 1125.83 742.25L1125.76 742.17C1125.46 741.8 1125.14 741.44 1124.76 741.08C1111.62 726.392 1093.19 717.526 1073.51 716.43C1053.83 715.335 1034.53 722.101 1019.84 735.24C1005.15 748.379 996.286 766.814 995.19 786.49C994.095 806.167 1000.86 825.472 1014 840.16V840.16Z" fill="#4A8DFD"/>
<path d="M1015 841.23L1015.07 841.3C1015.17 841.44 1015.28 841.55 1015.38 841.67C1015.58 841.906 1015.8 842.124 1016.04 842.32C1025.34 850.39 1056.2 835.93 1086.04 809.23C1115.88 782.53 1133.71 753.5 1126.73 743.35C1126.55 743.094 1126.36 742.85 1126.15 742.62C1126.05 742.492 1125.94 742.378 1125.81 742.28L1125.74 742.19C1119.41 736.19 1102.21 741.54 1082.11 754.56C1072.72 760.701 1063.82 767.554 1055.49 775.06C1048.8 781.023 1042.45 787.367 1036.49 794.06C1018.36 814.66 1009.23 833.63 1015 841.23Z" fill="#F9DDBF"/>
<path d="M1036.47 794.1C1041.93 798.608 1048.79 801.063 1055.87 801.04C1061.3 801.037 1066.63 799.592 1071.31 796.852C1076 794.113 1079.87 790.178 1082.54 785.45C1085.21 780.722 1086.57 775.37 1086.49 769.943C1086.41 764.515 1084.89 759.207 1082.08 754.56C1072.69 760.701 1063.79 767.554 1055.46 775.06C1048.77 781.036 1042.43 787.393 1036.47 794.1V794.1Z" fill="#FFEFE1"/>
<g opacity="0.7">
<path d="M1921.49 1522.66C1921.49 1522.66 1883.82 1478.72 1919.16 1450.81C1919.16 1450.81 1944.98 1435.18 1966.03 1436.45C1966.03 1436.45 1936.2 1486.45 1945.85 1491.45C1955.5 1496.45 1975.07 1433.32 1975.07 1433.32C1975.07 1433.32 2033.81 1427.62 2052.71 1436.71C2052.71 1436.71 2002.49 1477.81 2013.07 1480.25C2023.65 1482.69 2077.89 1442.36 2077.89 1442.36C2077.89 1442.36 2132.56 1451.67 2129.65 1485.02C2126.74 1518.37 2107.89 1528.67 2099.65 1527.79C2091.41 1526.91 2042.94 1508.41 2041.88 1515.19C2040.82 1521.97 2069.98 1544.19 2090.4 1545.19C2090.4 1545.19 2051.85 1587.7 2026.23 1575.43C2000.61 1563.16 1998.43 1543.71 1982.46 1536.43C1966.49 1529.15 1952.86 1529.15 1959.46 1536.59C1966.06 1544.03 1994.96 1551.26 2004.09 1567.42C2013.22 1583.58 2021.41 1594.42 1994.91 1590.48C1968.41 1586.54 1925.32 1567.09 1923.43 1544.89L1921.49 1522.66Z" fill="#77A4E5"/>
<path d="M2102.78 1485.91C2102.78 1485.91 1954.28 1480.19 1921.49 1522.66C1921.49 1522.66 1914.23 1544.38 1891.92 1564.16L1888.44 1573.64C1888.44 1573.64 1914.17 1546.51 1923.38 1544.87C1923.38 1544.87 1909 1492.25 2102.78 1485.91Z" fill="#77A4E5"/>
<path d="M1891.92 1564.16C1891.92 1564.16 1860.04 1587.73 1857.83 1629.85L1863.61 1630.37C1863.61 1630.37 1873.79 1586.82 1892.19 1569.79C1910.59 1552.76 1891.92 1564.16 1891.92 1564.16Z" fill="#77A4E5"/>
<path d="M1805.35 1486.7C1805.35 1486.7 1858.16 1457.13 1833.52 1416.99C1833.52 1416.99 1813.8 1392.34 1792.67 1385.99C1792.67 1385.99 1803.94 1445.85 1792.67 1447.26C1781.4 1448.67 1784.93 1379.66 1784.93 1379.66C1784.93 1379.66 1729.29 1352.9 1707.46 1355.01C1707.46 1355.01 1741.97 1413.46 1730.7 1412.01C1719.43 1410.56 1680.7 1351.45 1680.7 1351.45C1680.7 1351.45 1623.7 1340.89 1614.51 1374.69C1605.32 1408.49 1620.14 1425.39 1628.59 1427.5C1637.04 1429.61 1691.27 1428.91 1689.86 1435.95C1688.45 1442.99 1651.86 1454.26 1631.41 1447.95C1631.41 1447.95 1653.94 1503.59 1683.52 1500.77C1713.1 1497.95 1722.25 1479.64 1740.52 1478.23C1758.79 1476.82 1772.21 1481.76 1763.06 1486.68C1753.91 1491.6 1722.92 1488.3 1708.13 1500.87C1693.34 1513.44 1681.37 1521.19 1708.83 1526.82C1736.29 1532.45 1785.59 1528.94 1795.45 1507.82L1805.35 1486.7Z" fill="#77A4E5"/>
<path d="M1640.56 1385.3C1640.56 1385.3 1788.45 1433.19 1805.35 1486.7C1805.35 1486.7 1804.64 1510.7 1819.43 1538.11V1548.67C1819.43 1548.67 1803.94 1512.76 1795.49 1507.83C1795.49 1507.83 1828.59 1461.35 1640.56 1385.3Z" fill="#77A4E5"/>
<path d="M1819.43 1538.11C1819.43 1538.11 1842.24 1572.74 1829.24 1614.9L1823.37 1613.32C1823.37 1613.32 1829.06 1566.89 1817.13 1543.54C1805.2 1520.19 1819.43 1538.11 1819.43 1538.11Z" fill="#77A4E5"/>
<path d="M1885.12 1421.13C1885.12 1421.13 1806.12 1376.9 1843 1316.88C1843 1316.88 1872.48 1280.02 1904.07 1270.54C1904.07 1270.54 1887.23 1360.05 1904.07 1362.16C1920.91 1364.27 1915.66 1261.07 1915.66 1261.07C1915.66 1261.07 1998.85 1221.07 2031.49 1224.21C2031.49 1224.21 1979.89 1311.61 1996.74 1309.5C2013.59 1307.39 2071.5 1218.94 2071.5 1218.94C2071.5 1218.94 2156.8 1203.15 2170.5 1253.69C2184.2 1304.23 2162.07 1329.51 2149.44 1332.69C2136.81 1335.87 2055.72 1334.8 2057.82 1345.33C2059.92 1355.86 2114.69 1372.71 2145.23 1363.23C2145.23 1363.23 2111.53 1446.42 2067.3 1442.23C2023.07 1438.04 2009.39 1410.64 1982.01 1408.53C1954.63 1406.42 1934.62 1413.79 1948.31 1421.17C1962 1428.55 2008.31 1423.58 2030.45 1442.38C2052.59 1461.18 2070.45 1472.76 2029.39 1481.19C1988.33 1489.62 1914.61 1484.35 1899.87 1452.76L1885.12 1421.13Z" fill="#9FC1F4"/>
<path d="M2131.53 1269.49C2131.53 1269.49 1910.39 1341.1 1885.12 1421.13C1885.12 1421.13 1886.17 1456.93 1864.06 1498V1513.79C1864.06 1513.79 1887.23 1460.09 1899.86 1452.72C1899.86 1452.72 1850.37 1383.22 2131.53 1269.49Z" fill="#9FC1F4"/>
<path d="M1864.06 1498C1864.06 1498 1829.96 1549.78 1849.4 1612.82L1858.17 1610.47C1858.17 1610.47 1849.65 1541.03 1867.5 1506.11C1885.35 1471.19 1864.06 1498 1864.06 1498Z" fill="#9FC1F4"/>
<path d="M1887 1735.41C1904.91 1735.41 1922.65 1731.89 1939.2 1725.03C1955.76 1718.18 1970.79 1708.13 1983.46 1695.46C1996.13 1682.8 2006.18 1667.76 2013.03 1651.21C2019.88 1634.65 2023.41 1616.91 2023.4 1599H1750.65C1750.65 1616.91 1754.17 1634.64 1761.02 1651.19C1767.87 1667.74 1777.91 1682.78 1790.57 1695.44C1803.23 1708.11 1818.27 1718.16 1834.81 1725.02C1851.36 1731.87 1869.09 1735.41 1887 1735.41V1735.41Z" fill="#9FC1F4"/>
<path d="M1920.59 1734.36C1901.4 1736.75 1881.92 1735.04 1863.44 1729.33C1844.96 1723.63 1827.9 1714.05 1813.41 1701.25C1798.91 1688.45 1787.3 1672.72 1779.34 1655.09C1771.39 1637.46 1767.27 1618.34 1767.27 1599H1801.15C1801.15 1632.24 1813.28 1664.34 1835.27 1689.27C1857.27 1714.19 1887.61 1730.23 1920.59 1734.36V1734.36Z" fill="#AFCDFB"/>
<path d="M2026.51 1599.03H1746.17V1603.21H2026.51V1599.03Z" fill="#77A4E5"/>
<path d="M1828.79 1735.41H1956.47C1956.47 1733.97 1956.19 1732.55 1955.64 1731.22C1955.09 1729.9 1954.29 1728.69 1953.27 1727.67C1952.26 1726.66 1951.05 1725.85 1949.73 1725.3C1948.4 1724.75 1946.98 1724.47 1945.54 1724.47H1839.72C1838.28 1724.47 1836.86 1724.75 1835.53 1725.3C1834.21 1725.85 1833 1726.66 1831.99 1727.67C1830.97 1728.69 1830.17 1729.9 1829.62 1731.22C1829.07 1732.55 1828.79 1733.97 1828.79 1735.41V1735.41Z" fill="#77A4E5"/>
</g>
<path d="M855.06 1742.1H854.54C851.46 1742.1 848.98 1738.1 849.05 1733.15L857.38 1158.3L881.9 1153.74L861 1733.19C860.81 1738.19 858.21 1742.1 855.06 1742.1Z" fill="#2B478B"/>
<path d="M2088.56 1742.1H2089.08C2092.16 1742.1 2094.64 1738.1 2094.57 1733.15L2086.25 1158.3L2061.72 1153.74L2082.63 1733.19C2082.81 1738.19 2085.41 1742.1 2088.56 1742.1Z" fill="#2B478B"/>
<path d="M2141.42 1134.19H809.21C800.837 1134.19 794.05 1140.98 794.05 1149.35V1153.71C794.05 1162.08 800.837 1168.87 809.21 1168.87H2141.42C2149.79 1168.87 2156.58 1162.08 2156.58 1153.71V1149.35C2156.58 1140.98 2149.79 1134.19 2141.42 1134.19Z" fill="#2B478B"/>
<path d="M430.57 738.6C425.9 729.6 532.52 697.14 534.21 786.08C534.21 786.08 733.94 781.17 638.58 669.85C605.58 631.31 608.96 599.44 609.95 569.78C610.94 540.12 589.38 453.89 515.45 462.58C515.45 462.58 496.09 454.7 471.93 467.23C417 495.74 293.89 771.41 430.57 738.6Z" fill="#163560"/>
<path d="M757.11 838C757.11 838 770.11 818.21 780.59 817.82C791.07 817.43 810.47 812 808.92 815.88C807.37 819.76 795.34 820.15 794.17 822.48C793 824.81 812.02 828.3 817.46 828.69C822.9 829.08 835.7 828.69 835.31 831.4C834.92 834.11 812.23 845.4 796.22 843.82C780.21 842.24 760.41 848.48 760.41 848.48L757.11 838Z" fill="#FFB27D"/>
<path d="M762.93 860.74C762.93 860.74 735.61 897.83 699.3 914H699.24C686.41 919.71 672.44 922.78 658.15 920.68C647.985 919.084 638.203 915.619 629.3 910.46C612.71 901.1 599.06 887.2 588.97 874.56C585.92 870.75 583.21 867.05 580.83 863.63C576.513 857.501 572.589 851.105 569.08 844.48L578.32 686.48C578.32 686.48 611.38 694.15 621.09 708.89C630.8 723.63 671.53 841 678.52 844.44C685.51 847.88 758.86 831.44 758.86 831.44C758.86 831.44 769.34 843.28 762.93 860.74Z" fill="#304874"/>
<path d="M295.44 1636.19C295.44 1636.19 273.06 1656.61 277.44 1671.13C281.82 1685.65 302 1695.31 304.73 1713.05C307.46 1730.79 318.38 1740.47 328.2 1740.47H375C375 1740.47 382.23 1727.98 364.76 1724.22C347.29 1720.46 340.71 1699.61 341.76 1680.22C342.81 1660.83 340.12 1635.07 340.12 1635.07L303 1626.47L295.44 1636.19Z" fill="#233862"/>
<path d="M484.87 1644.86C484.87 1644.86 476.82 1731.39 486.65 1736.23L612.4 1736C612.4 1736 612.4 1721.48 592.2 1718.26C572 1715.04 536.52 1703.26 530.51 1676.87C524.5 1650.48 484.87 1644.86 484.87 1644.86Z" fill="#233862"/>
<path d="M629.3 910.42C612.71 901.06 599.06 887.16 588.97 874.52C585.92 870.71 583.21 867.01 580.83 863.59C587.77 830.84 597.93 785.79 595.73 814.31C592.88 851.34 621.78 898.77 629.3 910.42Z" fill="#80A3D8"/>
<path d="M395.26 1024.1C421.14 966.1 436.97 949.41 433.95 931.4C431.7 918 440.8 681.45 440.8 681.45C443.87 680.45 450.03 679.64 453.39 678.9C458.617 677.781 463.474 675.353 467.508 671.844C471.541 668.336 474.617 663.862 476.45 658.84C480.85 646.51 484.35 628.3 484.27 605.47L487.59 606.13L543.32 617.13C543.32 617.13 542.05 634.67 542.02 651.2C542.02 651.33 542.02 651.47 542.02 651.61C541.975 658.592 544.211 665.398 548.388 670.993C552.564 676.589 558.453 680.667 565.16 682.61C572.16 684.61 578.32 686.38 578.32 686.38C578.32 686.38 598.79 744.81 602.7 804.84C606.61 864.87 565.48 890.94 603.01 1010.84C641.31 1133.42 381 1056.16 395.26 1024.1Z" fill="#FFB27D"/>
<path d="M543.32 617.16C543.32 617.16 542.05 634.7 542.02 651.23C510.83 650.35 494.34 621.9 487.59 606.13L543.32 617.16Z" fill="#E8945B"/>
<path d="M553.74 632.81C553.74 632.81 480 634 479.89 588.06C479.78 542.12 470.29 511.3 517.4 508.58C564.51 505.86 573.68 523.38 577.4 538.72C581.12 554.06 572.93 631.31 553.74 632.81Z" fill="#FFB27D"/>
<path d="M551 507.45C551 507.45 530.79 561.38 499.79 569.35C468.79 577.32 455.33 569.01 455.33 569.01C455.33 569.01 479.11 550.12 484.05 517.14C484.06 517.14 535.77 481.78 551 507.45Z" fill="#163560"/>
<path d="M546 511.83C546 511.83 561 517.43 567.15 528.35C573.15 539.04 578.31 553.19 577.15 570.55C577.15 570.55 592.37 533.9 575.27 513.17C557.1 491.18 546 511.83 546 511.83Z" fill="#163560"/>
<path d="M537.68 604.29C539.579 606.441 541.95 608.122 544.609 609.201C547.267 610.281 550.139 610.729 553 610.51C555.382 610.366 557.684 609.596 559.674 608.277C561.663 606.959 563.269 605.138 564.33 603C564.33 603 549.26 599.38 537.68 604.29Z" fill="#EBF3FA"/>
<path d="M388.14 786.08C387.017 805.437 387.017 824.843 388.14 844.2C389.39 865.2 410.65 893.37 413.66 900.33C421.23 917.79 429.76 920.63 429.76 920.63L495.76 936.82L519 942.5L592.21 920.63C592.21 920.63 625.55 827.56 612.16 775.17C598.77 722.78 578.32 686.4 578.32 686.4C578.32 686.4 518.58 744.89 440.8 681.4L388.14 786.08Z" fill="#304874"/>
<path d="M407.47 852.78C408.71 873.78 410.65 893.37 413.66 900.33C421.23 917.79 429.76 920.63 429.76 920.63L495.76 936.82L524.43 928.39C524.43 928.39 428.71 913.88 439.31 831.52L407.47 852.78Z" fill="#F2CCAA"/>
<path d="M587.55 934.76C587.55 934.76 623.81 1047.61 626.13 1086.03C628.45 1124.45 556.83 1631.81 553.95 1649.52C551.24 1666.21 530.51 1676.84 530.51 1676.84C530.51 1676.84 520.98 1682.46 507.38 1678.62C488.51 1673.3 482.54 1666.91 482.54 1666.91C482.54 1666.91 454.33 1305.06 471.79 1175.8C489.25 1046.54 489.46 934.8 489.46 934.8L587.55 934.76Z" fill="#A3001C"/>
<path d="M434 931.4C434 931.4 378.7 1005.6 373.54 1055.76C368.38 1105.92 365.41 1282.1 354.42 1331C343.43 1379.9 303.08 1474 303.08 1626.51C303.08 1626.51 307.28 1635.26 320.23 1639.91C325.175 1641.58 330.209 1642.97 335.31 1644.08C340.5 1645.26 345.937 1644.67 350.746 1642.39C355.555 1640.1 359.456 1636.27 361.82 1631.5C389.11 1576.56 476.02 1399.39 480.47 1362.62C483.62 1336.62 511.06 1164.34 570.92 1063.26C585.29 1039 562.1 942.5 562.1 942.5L434 931.4Z" fill="#C72B46"/>
<path d="M539.32 605.52C539.32 605.52 540.6 610.94 554.07 610.1C554.07 610.1 565.39 609.4 565.07 603.45C565 603.45 554.07 599.22 539.32 605.52Z" fill="white"/>
<path d="M593.34 917.34C593.34 917.34 578.79 928.85 549.88 929.44C515.34 930.13 429.77 920.63 429.77 920.63C427.411 927.672 426.179 935.043 426.12 942.47C426.12 942.47 530.64 968.84 591.19 946.32C591.19 946.32 599 931.63 593.34 917.34Z" fill="#233862"/>
<path d="M542.4 941.36C542.4 931.53 549.47 923.52 558.16 923.52C566.85 923.52 573.92 931.52 573.92 941.36C573.92 951.2 566.85 959.2 558.16 959.2C549.47 959.2 542.4 951.2 542.4 941.36ZM547.63 941.36C547.63 948.36 552.35 953.97 558.16 953.97C563.97 953.97 568.7 948.32 568.7 941.36C568.7 934.4 563.97 928.75 558.16 928.75C552.35 928.75 547.63 934.41 547.63 941.36Z" fill="white"/>
<path d="M317.287 937.764L424.36 1031L551.999 884.431L444.927 791.19L317.287 937.764Z" fill="#5D71AB"/>
<path d="M453.92 938.1C453.92 938.1 493.15 942.68 493 952C492.85 961.32 483.22 980.44 478.38 981.29C473.54 982.14 446.45 955.42 446.45 955.42L453.92 938.1Z" fill="#FFB27D"/>
<path d="M440.8 681.44C440.8 681.44 388.42 685.11 368.34 733.92C348.26 782.73 310.16 864.69 310.16 878.47C310.16 892.25 331.44 934.76 445.73 959.2C445.73 959.2 457.55 946.76 456.84 936.93C456.84 936.93 385.49 875.65 385.69 868.49C386.05 854.94 397.38 837.06 460.02 774.4C477.05 757.37 440.8 681.44 440.8 681.44Z" fill="#304874"/>
<path d="M2996.98 1734.21H3.64C1.62968 1734.21 0 1735.84 0 1737.85V1739.71C0 1741.72 1.62968 1743.35 3.64 1743.35H2996.98C2998.99 1743.35 3000.62 1741.72 3000.62 1739.71V1737.85C3000.62 1735.84 2998.99 1734.21 2996.98 1734.21Z" fill="#2E3552"/>
</g>
<defs>
<clipPath id="clip0_17_136">
<rect width="3000.62" height="1743.35" fill="white"/>
</clipPath>
</defs>
</svg>
